HIERARCHY
ROOT Hips
{
  OFFSET -35.2597 29.1586 114.425
  CHANNELS 6 Xposition Yposition Zposition Zrotation Xrotation Yrotation
  JOINT LeftUpLeg
  {
    OFFSET 8.64259 1.95398 -2.38835
    CHANNELS 3 Zrotation Xrotation Yrotation
    JOINT LeftLeg
    {
      OFFSET 43.7702 0 0
      CHANNELS 3 Zrotation Xrotation Yrotation
      JOINT LeftFoot
      {
        OFFSET 40.6238 0 0
        CHANNELS 3 Zrotation Xrotation Yrotation
        JOINT LeftToeBase
        {
          OFFSET 12.7242 0 0
          CHANNELS 3 Zrotation Xrotation Yrotation
          End Site
          {
            OFFSET 0 0 0
          }
        }
      }
    }
  }
  JOINT RightUpLeg
  {
    OFFSET -8.2249 1.95398 -2.59336
    CHANNELS 3 Zrotation Xrotation Yrotation
    JOINT RightLeg
    {
      OFFSET 43.5653 0 0
      CHANNELS 3 Zrotation Xrotation Yrotation
      JOINT RightFoot
      {
        OFFSET 40.6238 0 0
        CHANNELS 3 Zrotation Xrotation Yrotation
        JOINT RightToeBase
        {
          OFFSET 12.7242 0 0
          CHANNELS 3 Zrotation Xrotation Yrotation
          End Site
          {
            OFFSET 0 0 0
          }
        }
      }
    }
  }
  JOINT Spine
  {
    OFFSET 0.165834 0.87714 6.61349
    CHANNELS 3 Zrotation Xrotation Yrotation
    JOINT Spine1
    {
      OFFSET 7.38963 1.71661e-005 0
      CHANNELS 3 Zrotation Xrotation Yrotation
      JOINT Spine2
      {
        OFFSET 11.9445 1.14441e-005 0
        CHANNELS 3 Zrotation Xrotation Yrotation
        JOINT Spine3
        {
          OFFSET 14.7254 4.19617e-005 0
          CHANNELS 3 Zrotation Xrotation Yrotation
          JOINT Spine4
          {
            OFFSET 10.9679 0 0
            CHANNELS 3 Zrotation Xrotation Yrotation
            JOINT RightShoulder
            {
              OFFSET 2.46616 -1.6653 3.69651
              CHANNELS 3 Zrotation Xrotation Yrotation
              JOINT RightArm
              {
                OFFSET 13.0012 0 0
                CHANNELS 3 Zrotation Xrotation Yrotation
                JOINT RightForeArm
                {
                  OFFSET 28.7848 1.62311e-005 0
                  CHANNELS 3 Zrotation Xrotation Yrotation
                  JOINT RightHand
                  {
                    OFFSET 26.5688 1.62095e-005 0
                    CHANNELS 3 Zrotation Xrotation Yrotation
                    End Site
                    {
                      OFFSET 0 0 0
                    }
                  }
                }
              }
            }
            JOINT LeftShoulder
            {
              OFFSET 2.38034 -1.29275 -3.7523
              CHANNELS 3 Zrotation Xrotation Yrotation
              JOINT LeftArm
              {
                OFFSET 16.3182 6.07031e-005 0
                CHANNELS 3 Zrotation Xrotation Yrotation
                JOINT LeftForeArm
                {
                  OFFSET 27.0901 0 0
                  CHANNELS 3 Zrotation Xrotation Yrotation
                  JOINT LeftHand
                  {
                    OFFSET 24.5451 1.51738e-005 0
                    CHANNELS 3 Zrotation Xrotation Yrotation
                    End Site
                    {
                      OFFSET 0 0 0
                    }
                  }
                }
              }
            }
            JOINT Neck
            {
              OFFSET 5.0226 -0.0266342 0
              CHANNELS 3 Zrotation Xrotation Yrotation
              JOINT Head
              {
                OFFSET 6.69364 2.86102e-005 0
                CHANNELS 3 Zrotation Xrotation Yrotation
                End Site
                {
                  OFFSET 0 0 0
                }
              }
            }
          }
        }
      }
    }
  }
}
MOTION
Frames:	7
Frame Time:	0.0416667
65.3271 93.7538 -102.09 89.3813 51.2048 90.3679 -176.5 36.1234 85.4956 -39.6293 19.2354 -1.73414 62.9436 1.7432 5.97492 16.5481 -3.27146 -4.72307 172.511 -17.5574 93.8176 -49.3965 -7.46768 0.806605 59.2487 0.865919 -0.11511 20.1193 0.346195 8.95866 2.0725 8.24167 -89.5583 10.3866 4.33118 0.496988 -1.27712 4.34885 0.305515 -23.8627 3.98134 1.77772 -3.85008 3.98134 1.77771 88.5759 -30.4695 -109.372 35.9366 -2.25686 21.9488 -43.654 -9.94981 -82.4527 -36.6931 14.6728 -48.3259 -87.6403 -56.9706 83.4092 -17.0204 -22.0184 73.0914 75.0482 -22.3898 -98.1065 50.3244 -19.6029 -42.6811 13.8051 -9.7081 -4.68827 -7.01538 -7.97475 -5.48068 
72.4694 91.6153 -109.92 97.0962 51.9816 78.3936 -173.257 29.4583 79.7154 -51.7126 19.9089 -2.90792 74.3278 11.0041 6.15149 13.582 -8.26555 0.312484 167.76 -9.26896 85.3962 -72.6366 -7.73471 -1.60837 61.408 -0.622441 -3.95304 14.4042 1.38148 11.2121 1.07772 8.69383 -88.9578 9.46195 2.61805 1.86875 -2.20753 2.69775 1.75169 -24.7448 1.93555 2.56906 -4.7322 1.93555 2.56906 87.0188 -35.6242 -110.196 37.862 -0.644253 21.0188 -49.6846 -18.0467 -76.2161 -39.5337 12.9107 -40.6776 -87.8675 -60.8177 83.6761 -20.5973 -14.7228 53.531 70.2639 -14.7578 -97.2798 45.6112 -16.9874 -41.2892 13.0157 -7.76196 -5.93653 -3.04366 -6.00354 -3.47525 
78.3605 90.696 -117.498 95.6204 49.7999 76.2986 -171.603 23.3838 76.8937 -53.5691 18.4954 -4.23102 78.7756 16.3923 10.2963 23.3268 -1.53736 -2.18082 171.6 6.27103 80.1676 -90.7144 -7.50496 -4.0757 63.6162 -3.14052 -6.38604 9.08462 3.33736 10.9173 0.520852 8.49381 -88.4293 9.85184 1.75007 2.97666 -1.82119 1.87936 2.89682 -24.3314 0.77519 3.36458 -4.31875 0.77519 3.36459 87.6765 -37.3481 -108.361 40.5703 -0.58486 26.3523 -44.9531 -19.5297 -72.0597 -36.7257 12.8798 -43.3753 -87.6729 -60.1803 83.8432 -21.5033 -9.76255 31.9922 76.2474 -13.7368 -95.4886 36.342 -15.2883 -45.8464 14.5196 -5.74405 -5.49893 -5.30562 -3.95833 -4.49422 
83.8613 91.7859 -124.091 93.7343 48.4335 79.8299 -171.226 17.4116 79.7679 -52.0209 17.3635 -4.04412 82.4985 19.2424 8.68274 24.0835 -2.8164 0.799548 176.213 23.1397 86.5803 -94.9535 -8.28565 -4.35295 65.0454 -4.56703 -7.93474 9.57484 2.47445 12.3491 -0.0619548 7.9931 -88.7012 10.8783 0.477231 2.53986 -0.794994 0.588529 2.51641 -23.3102 -0.30786 2.56589 -3.29755 -0.307889 2.56588 88.201 -36.73 -107.658 42.6767 0.231386 36.4195 -37.967 -16.6551 -70.2203 -32.9483 13.3962 -49.282 -86.7619 -58.5923 84.8555 -21.3244 -5.59924 18.347 67.7267 -11.5117 -96.6421 32.6905 -16.2014 -51.984 12.5659 -1.95425 -3.66112 -4.90404 -0.879358 -3.86282 
90.4283 94.7245 -130.62 97.0377 46.6639 80.702 -170.524 6.95523 84.1724 -46.8827 18.1288 -3.7257 75.4884 13.7324 9.56093 36.9013 4.84509 -2.68777 178.195 28.6367 90.8446 -84.2329 -2.43161 -3.85535 68.2126 -6.02417 -7.80227 8.84011 2.68078 12.4355 -0.638196 8.04606 -89.2023 10.7852 -0.902689 1.66818 -0.886597 -0.8284 1.70627 -23.4182 -1.36227 1.31984 -3.4056 -1.36227 1.31984 87.9112 -35.4393 -108.65 40.2932 4.66827 40.5496 -42.9 -20.7303 -69.4926 -34.5616 14.359 -50.0301 -86.5381 -53.4695 84.4445 -22.8733 2.8202 12.6188 50.6284 -6.51581 -96.698 63.3068 -20.1011 -35.8942 13.8678 1.8311 -2.32234 -5.99112 2.49276 -2.4763 
97.4823 97.8548 -138.351 98.4621 43.9976 83.4593 -170.306 -2.70707 89.432 -38.5865 18.227 -2.81557 66.1284 5.1678 6.69146 45.3452 8.19162 -1.83013 179.885 28.7276 95.0564 -64.5298 -2.40367 -3.11101 67.6432 -5.01284 -7.43072 10.5248 2.97429 10.6281 -0.906613 8.04214 -89.7987 10.7946 -1.71234 0.559265 -0.875383 -1.68606 0.634097 -23.4196 -1.80122 0.0186246 -3.40693 -1.80124 0.018613 88.4152 -33.8154 -108.342 37.2489 8.49463 40.0597 -48.7404 -27.3133 -68.2633 -32.8741 13.0653 -48.3811 -86.5916 -51.6677 84.0993 -22.2482 3.56523 13.978 47.3813 -8.01554 -98.6617 67.6835 -19.5419 -31.858 15.0089 4.46608 -0.758584 -8.24245 4.61543 -1.02262 
104.857 99.8101 -146.63 98.124 42.7004 86.179 -171.403 -11.491 91.6856 -30.7657 18.3799 -0.502371 58.642 -1.21185 3.19386 41.5177 6.45919 -1.84098 179.943 24.8448 96.8094 -39.0097 -8.9778 -1.38068 64.3628 -2.8439 -3.08699 14.6607 1.97295 9.62358 -1.0676 7.7428 -90.2787 11.3853 -2.25417 -0.327228 -0.283702 -2.26638 -0.227665 -22.832 -2.05158 -0.989844 -2.81935 -2.05159 -0.989845 89.2006 -31.7445 -107.649 37.3866 10.2602 36.4222 -42.7674 -34.6864 -57.8659 -32.465 13.1232 -49.0892 -86.8119 -51.2727 83.712 -20.3257 -2.93011 20.8639 55.6802 -16.7776 -102.974 40.5171 -15.6428 -42.6329 14.8808 5.86283 0.305486 -11.9982 5.57658 0.69374 
